Space Cowboys 2000 BluRay 1080p ac3-LoNeWoLf

Encoded by Tequila-Bob a.k.a. bobnjeff a.k.a.LoNeWoLf

Source - NTSC BluRay Disc.

 
http://www.imdb.com/title/tt0186566/

Genres:Adventure | Thriller 

Rated PG-13 for some language

More at IMDbPro » Space Cowboys (2000) 
  130 min  -  Adventure | Thriller   -  4 August 2000 (USA) 
  6.3/10 X  Users: 6.3/10 (30,507 votes) 303 reviews | Critics: 161 reviews 
  When a retired engineer is called upon to rescue a failing satellite, he insists that his equally old   teammates accompany him into space. 


Director: Clint Eastwood
Writers: Ken Kaufman, Howard Klausner
Stars:Clint Eastwood, Tommy Lee Jones and Donald Sutherland 


Storyline
In 1958, four hot shot test pilots seem certain to be the first men to go into outer space. However, the back-stabbing leader of their organization disbands them to prevent their involvement in the then forming NASA and labels them as non-team players. Flash forward to the present, the foursome are now living a docile life. The electrical engineer has a pleasant retired life in a desert home with his wife. The pilot, who had a penchant for pushing the test planes to their limits, is now a daredevil crop-duster. The navigator is a Baptist minister. The designer is a womanizing roller coaster designer. Their former boss is now a mission leader in Nasa and still as despicable as in his younger days. It is here that the main story begins. It seems that an old Russian "communications" satellite is about to crash back into the Earth's atmosphere and somehow American technology designed by Eastwood's character has ended up as the guiding system... 

Cast
Cast overview, first billed only: 
  Clint Eastwood  ...  Frank Corvin  
  Tommy Lee Jones  ...  Hawk Hawkins  
  Donald Sutherland  ...  Jerry O'Neill  
  James Garner  ...  Tank Sullivan  
  James Cromwell  ...  Bob Gerson  
  Marcia Gay Harden  ...  Sara Holland  
  William Devane  ...  Eugene Davis  
  Loren Dean  ...  Ethan Glance  
  Courtney B. Vance  ...  Roger Hines  
  Barbara Babcock  ...  Barbara Corvin  
  Rade Serbedzija  ...  General Vostov  
  Blair Brown  ...  Dr. Anne Caruthers  
  Jay Leno  ...  Himself  
  Nils Allen Stewart  ...  Tiny  
  Deborah Jolly  ...  Cocktail Waitress 


[img]http://torrent-stats.info/960c/a12f7a0c.png[/img]


Format : Matroska 
File size : 8.01 GiB 
Duration : 2h 10mn 
Overall bit rate : 8 788 Kbps 
Encoded date : UTC 2010-12-12 21:37:37 
Writing application : mkvmerge v4.4.0 ('Die Wiederkehr') built on Oct 31 2010 21:52:48 
Writing library : libebml v1.0.0 + libmatroska v1.0.0 

Video 
ID : 1 
Format : AVC 
Format/Info : Advanced Video Codec 
Format profile : High@L4.1 
Format settings, CABAC : Yes 
Format settings, ReFrames : 5 frames 
Muxing mode : Container profile=Unknown@4.1 
Codec ID : V_MPEG4/ISO/AVC 
Duration : 2h 10mn 
Bit rate : 8 085 Kbps 
Width : 1 920 pixels 
Height : 800 pixels 
Display aspect ratio : 2.40:1 
Frame rate : 23.976 fps 
Color space : YUV 
Chroma subsampling : 4:2:0 
Bit depth : 8 bits 
Scan type : Progressive 
Bits/(Pixel*Frame) : 0.220 
Stream size : 7.26 GiB (91%) 
Writing library : x264 core 98 r1649 c54c47d 
Encoding settings : cabac=1 / ref=6 / deblock=1:-2:-1 / analyse=0x3:0x133 / me=umh / subme=9 / psy=1 / psy_rd=1.00:0.15 / mixed_ref=1 / me_range=24 / chroma_me=1 / trellis=1 / 8x8dct=1 / cqm=0 / deadzone=21,11 / fast_pskip=1 / chroma_qp_offset=-3 / threads=6 / sliced_threads=0 / nr=0 / decimate=1 / interlaced=0 / constrained_intra=0 / bframes=4 / b_pyramid=1 / b_adapt=1 / b_bias=0 / direct=1 / weightb=1 / weightp=2 / keyint=250 / keyint_min=25 / scenecut=40 / intra_refresh=0 / rc_lookahead=50 / rc=2pass / mbtree=1 / bitrate=8085 / ratetol=1.0 / qcomp=0.60 / qpmin=10 / qpmax=51 / qpstep=4 / cplxblur=20.0 / qblur=0.5 / ip_ratio=1.40 / aq=1:1.00 
Language : English 

Audio 
ID : 2 
Format : AC-3 
Format/Info : Audio Coding 3 
Mode extension : CM (complete main) 
Codec ID : A_AC3 
Duration : 2h 10mn 
Bit rate mode : Constant 
Bit rate : 640 Kbps 
Channel(s) : 6 channels 
Channel positions : Front: L C R, Side: L R, LFE 
Sampling rate : 48.0 KHz 
Bit depth : 16 bits 
Stream size : 597 MiB (7%) 
Title : 3/2+1 
Language : English 

Text #1 
Language : English 

Text #2 
Language : French 

Text #3 
Language : Spanish 

Text #4 
Language : English 

Menu & 35 Chapters



See the full size 1920x800 PNG files at the link below

 
http://s1015.photobucket.com/albums/af279/tequila-bob/SpaceCowboys2000/